<svg width="20" height="26" viewBox="0 0 20 26" fill="none" xmlns="http://www.w3.org/2000/svg">
<path d="M8.72253 0.23993C9.32934 -0.0799765 10.2527 -0.0799765 10.8595 0.23993L17.0514 3.50429C17.4169 3.69694 17.6176 3.98404 17.6535 4.28042H17.6595V20.6887C17.6514 21.012 17.4488 21.3331 17.0514 21.5426L10.8595 24.807C10.2527 25.1269 9.32934 25.1269 8.72253 24.807L2.53059 21.5426C2.13488 21.334 1.94497 21.0106 1.93556 20.6887C1.9346 20.6556 1.93451 20.6284 1.93553 20.606L1.93556 4.39089C1.93464 4.36808 1.93463 4.34537 1.93554 4.32276L1.93556 4.28042H1.93833C1.96583 3.98077 2.15743 3.701 2.53059 3.50429L8.72253 0.23993ZM16.6745 13.4029L10.8576 16.4796C10.2516 16.8001 9.32967 16.8001 8.72374 16.4796L2.91979 13.4097V20.638L8.72374 23.6915C9.06673 23.875 9.42335 24.0538 9.77062 24.0616L9.79065 24.0619C10.1372 24.063 10.4737 23.8868 10.8149 23.7199L16.6745 20.6116V13.4029ZM0.964721 20.333C0.964721 20.962 1.03718 21.3754 1.18104 21.6667C1.30028 21.9081 1.4792 22.0926 1.80588 22.3171L1.82453 22.3298C1.89622 22.3786 1.9752 22.4297 2.07133 22.4897L2.1847 22.5598L2.53283 22.7717L2.03352 23.6046L1.64388 23.3671L1.57838 23.3266C1.46572 23.2564 1.37234 23.1961 1.28525 23.1369C0.35419 22.5036 0.00695522 21.8131 0.000103598 20.3768L0 20.333H0.964721ZM9.32222 9.0408C9.27717 9.05629 9.23494 9.07426 9.19644 9.09463L3.01395 12.3695C3.00746 12.3729 3.00127 12.3763 2.99538 12.3797L2.99015 12.3827L2.99986 12.3883L3.01395 12.396L9.19644 15.6708C9.23494 15.6912 9.27717 15.7092 9.32222 15.7247V9.0408ZM10.3072 9.0408V15.7247C10.3523 15.7092 10.3945 15.6912 10.433 15.6708L16.6155 12.396C16.622 12.3925 16.6282 12.3891 16.634 12.3858L16.6393 12.3827L16.6296 12.3771L16.6155 12.3695L10.433 9.09463C10.3945 9.07426 10.3523 9.05629 10.3072 9.0408ZM16.6745 5.45262L11.1163 8.37241L16.6745 11.2922V5.45262ZM2.91979 5.45262V11.2922L8.47795 8.37241L2.91979 5.45262ZM10.4276 1.11259C10.1058 0.942458 9.52362 0.942458 9.20183 1.11259L3.01397 4.38404C3.00747 4.38748 3.00128 4.39087 2.99539 4.39425L2.99015 4.39727L2.99986 4.40283L3.01397 4.4105L9.20183 7.68195C9.52362 7.8521 10.1058 7.8521 10.4276 7.68195L16.6154 4.4105C16.6219 4.40706 16.6281 4.40368 16.634 4.40033L16.6393 4.39727L16.6296 4.39171L16.6154 4.38404L10.4276 1.11259ZM17.5959 1.44231L17.9856 1.67973L18.0511 1.7203C18.1637 1.79046 18.2571 1.85074 18.3442 1.90999C19.2752 2.5433 19.6225 3.23376 19.6293 4.67012L19.6294 4.71388H18.6647C18.6647 4.08484 18.5923 3.67144 18.4484 3.38016C18.3292 3.13877 18.1503 2.95428 17.8236 2.7298L17.8049 2.71705C17.7332 2.66829 17.6543 2.61719 17.5581 2.55716L17.4447 2.4871L17.0966 2.27514L17.5959 1.44231Z" fill="#0617FF"/>
</svg>
