<svg width="40" height="49" viewBox="0 0 40 49" fill="none" xmlns="http://www.w3.org/2000/svg">
<path fill-rule="evenodd" clip-rule="evenodd" d="M5.68035 17.5156H34.5489C37.135 17.5156 39.2507 19.5403 39.2507 22.015V44.2178C39.2507 46.6925 37.1349 48.7171 34.5489 48.7171H5.68035C3.09425 48.7171 0.978516 46.6925 0.978516 44.2178V22.0149C0.97841 19.5403 3.09414 17.5156 5.68035 17.5156ZM20.1146 25.6914C17.8631 25.6914 16.0378 27.4379 16.0378 29.5924C16.0378 30.9507 16.7634 32.1466 17.8638 32.8452L16.1201 39.9191C16.0817 40.0748 16.1164 40.224 16.2202 40.3494C16.324 40.4748 16.4677 40.5414 16.6348 40.5414H23.5941C23.7612 40.5414 23.9051 40.4748 24.0087 40.3494C24.1124 40.224 24.1471 40.0748 24.1088 39.9191L22.3652 32.8452C23.4655 32.1466 24.1911 30.9507 24.1911 29.5924C24.1913 27.4379 22.366 25.6914 20.1146 25.6914Z" fill="#D22BDF"/>
<path fill-rule="evenodd" clip-rule="evenodd" d="M26.2178 15.0853V11.7003C26.2178 8.32858 23.3147 5.55054 19.7912 5.55054C16.2678 5.55054 13.3647 8.32858 13.3647 11.7003V15.0853H7.70312V11.7003C7.70312 5.33819 13.1427 0.132812 19.7912 0.132812C26.4398 0.132812 31.8794 5.33819 31.8794 11.7003V15.0853H26.2178Z" fill="#24F2FF"/>
</svg>
