<svg width="55" height="53" viewBox="0 0 55 53" fill="none" xmlns="http://www.w3.org/2000/svg">
<g clip-path="url(#clip0_694_269)">
<path d="M5.17405 31.3984H1.89516C1.01821 31.3984 0.308594 32.0775 0.308594 32.9167V51.1353C0.308594 51.9745 1.01821 52.6536 1.89516 52.6536H5.17405C7.79865 52.6536 9.93374 50.6104 9.93374 48.0989V35.9531C9.93374 33.4416 7.79865 31.3984 5.17405 31.3984Z" fill="#D22BDF"/>
<path d="M37.0108 0.832031C27.3961 0.832031 19.5586 8.33195 19.5586 17.5325C19.5586 21.5406 21.0499 25.2146 23.525 28.0992C25.5241 28.6458 27.3961 29.6174 28.9827 30.9536C29.281 31.1677 29.4495 31.1652 29.776 31.1965H35.4242C37.6137 31.1965 39.5493 32.2288 40.66 33.8686C48.5292 32.2591 54.463 25.5487 54.463 17.5325C54.463 8.33195 46.6255 0.832031 37.0108 0.832031ZM38.6291 24.8502H38.5973V26.6418C38.5973 27.4919 37.8994 28.16 37.0108 28.16C36.1222 28.16 35.4242 27.4919 35.4242 26.6418V24.8502C34.3771 24.5162 33.3934 23.8786 32.5368 22.8766C31.9655 22.2389 32.0608 21.2976 32.7272 20.7511C33.3934 20.2046 34.4088 20.2957 34.9483 20.9333C35.8051 21.905 36.7569 22.2693 37.5502 21.996C38.1848 21.7834 38.5973 21.2065 38.5973 20.5689C38.5973 19.7186 37.8994 19.0507 37.0108 19.0507C34.3771 19.0507 32.2511 17.0162 32.2511 14.496C32.2511 12.6741 33.3934 11.004 35.1704 10.3057C35.2339 10.2754 35.329 10.2754 35.4242 10.2449V8.42315C35.4242 7.57284 36.1222 6.90492 37.0108 6.90492C37.8994 6.90492 38.5973 7.57284 38.5973 8.42315V10.2449C39.4224 10.5183 40.2156 10.913 40.9455 11.5809C41.5801 12.1579 41.5801 13.1295 40.9772 13.7369C40.3743 14.3443 39.3589 14.3442 38.7242 13.7673C37.9626 13.0688 37.1061 12.7956 36.4079 13.0992C35.805 13.3422 35.4242 13.8887 35.4242 14.496C35.4242 15.3461 36.1222 16.0143 37.0108 16.0143C39.6445 16.0143 41.7705 18.0487 41.7705 20.5689C41.7705 22.4819 40.5011 24.1823 38.6291 24.8502Z" fill="#24F2FF"/>
<path d="M53.9869 34.3441C53.7964 34.0405 53.5427 33.7975 53.2571 33.5849C52.0888 32.6069 50.1205 32.6994 48.9734 33.8887L41.7703 41.8442L41.5482 42.0869C40.6599 43.0282 39.3905 43.5445 38.0578 43.5445H25.6403C24.7517 43.5445 24.0537 42.8764 24.0537 42.0263C24.0537 41.176 24.7517 40.508 25.6403 40.508H35.4241C37.1693 40.508 38.5972 39.1416 38.5972 37.4716V37.4412C38.5655 35.7712 37.1693 34.4352 35.4241 34.4352H29.575C28.6235 34.4352 27.6037 34.1008 26.7826 33.4331C22.9115 30.1841 17.2632 29.9715 13.1064 32.7348V51.4089C16.2478 52.2288 19.4844 52.6539 22.7526 52.6539H37.0107C40.501 52.6539 43.8011 51.0749 45.8954 48.4028L53.511 38.6862C54.6221 37.2905 54.7059 35.3766 53.9869 34.3441Z" fill="#D22BDF"/>
</g>
<defs>
<clipPath id="clip0_694_269">
<rect width="54.1547" height="51.822" fill="white" transform="translate(0.308594 0.832031)"/>
</clipPath>
</defs>
</svg>
