<svg width="49" height="47" viewBox="0 0 49 47" fill="none" xmlns="http://www.w3.org/2000/svg">
<g clip-path="url(#clip0_694_293)">
<path d="M28.7611 1.01172L35.285 7.25461L0.953125 40.9856L6.52627 46.3177L41.0893 12.8089L48.3385 19.7458V1.01172H28.7611Z" fill="#D22BDF"/>
<path d="M35.7702 26.2539C30.237 26.2539 25.7363 30.5616 25.7363 35.8556C25.7363 41.1495 30.237 45.4572 35.7702 45.4572C41.3024 45.4572 45.804 41.1495 45.804 35.8556C45.804 30.5616 41.3025 26.2539 35.7702 26.2539ZM35.7702 40.1259C33.3096 40.1259 31.3076 38.2102 31.3076 35.8556C31.3076 33.5009 33.3096 31.5852 35.7702 31.5852C38.2308 31.5852 40.2327 33.5009 40.2327 35.8556C40.2328 38.2102 38.2309 40.1259 35.7702 40.1259Z" fill="#24F2FF"/>
<path d="M12.5514 1.83203C7.01826 1.83203 2.51758 6.13974 2.51758 11.4337C2.51758 16.7276 7.01826 21.0353 12.5514 21.0353C18.0837 21.0353 22.5843 16.7276 22.5843 11.4337C22.5843 6.13974 18.0837 1.83203 12.5514 1.83203ZM12.5514 15.704C10.0908 15.704 8.08887 13.7883 8.08887 11.4337C8.08887 9.07905 10.0908 7.16335 12.5514 7.16335C15.012 7.16335 17.013 9.07905 17.013 11.4337C17.013 13.7883 15.012 15.704 12.5514 15.704Z" fill="#24F2FF"/>
</g>
<defs>
<clipPath id="clip0_694_293">
<rect width="47.3853" height="45.3443" fill="white" transform="translate(0.953125 0.992188)"/>
</clipPath>
</defs>
</svg>
