<svg width="53" height="51" viewBox="0 0 53 51" fill="none" xmlns="http://www.w3.org/2000/svg">
<path fill-rule="evenodd" clip-rule="evenodd" d="M47.7959 13.8365C47.7743 14.6931 47.0326 15.3719 46.1374 15.3532C45.2421 15.3326 44.5328 14.6228 44.5523 13.7661L44.641 10.029L40.7378 9.94414C39.8425 9.92345 39.1333 9.21368 39.1527 8.357C39.1744 7.50032 39.9161 6.82159 40.8113 6.84022L46.3385 6.96231C47.2337 6.98093 47.943 7.69069 47.9214 8.54738L47.7959 13.8365Z" fill="#24F2FF"/>
<path fill-rule="evenodd" clip-rule="evenodd" d="M13.2724 19.9338V45.057C13.2724 46.5013 12.0507 47.6705 10.5413 47.6705H6.10614C4.59677 47.6705 3.375 46.5013 3.375 45.057V19.9338C3.375 18.4915 4.59677 17.3203 6.10614 17.3203H10.5413C12.0507 17.3203 13.2724 18.4915 13.2724 19.9338Z" fill="#D22BDF"/>
<path fill-rule="evenodd" clip-rule="evenodd" d="M37.6689 32.6682V45.057C37.6689 45.7502 37.3813 46.4144 36.8688 46.9048C36.3563 47.3953 35.6622 47.6705 34.9378 47.6705H30.5026C29.7782 47.6705 29.0841 47.3953 28.5716 46.9048C28.0591 46.4144 27.7715 45.7502 27.7715 45.057V32.6682C27.7715 31.975 28.0591 31.3107 28.5716 30.8203C29.0841 30.3299 29.7782 30.0547 30.5026 30.0547H34.9378C35.6622 30.0547 36.3563 30.3299 36.8688 30.8203C37.3813 31.3107 37.6689 31.975 37.6689 32.6682Z" fill="#D22BDF"/>
<path fill-rule="evenodd" clip-rule="evenodd" d="M25.4707 26.301V45.057C25.4707 46.5013 24.2489 47.6705 22.7395 47.6705H18.3044C16.795 47.6705 15.5732 46.5013 15.5732 45.057V26.301C15.5732 25.6078 15.8608 24.9436 16.3733 24.4531C16.8858 23.9627 17.58 23.6875 18.3044 23.6875H22.7395C24.2489 23.6875 25.4707 24.8587 25.4707 26.301Z" fill="#D22BDF"/>
<path fill-rule="evenodd" clip-rule="evenodd" d="M49.8671 26.301V45.057C49.8671 46.5013 48.6454 47.6705 47.136 47.6705H42.7009C41.1915 47.6705 39.9697 46.5013 39.9697 45.057V26.301C39.9697 25.6078 40.2573 24.9436 40.7698 24.4531C41.2823 23.9627 41.9765 23.6875 42.7009 23.6875H47.136C48.6454 23.6875 49.8671 24.8587 49.8671 26.301Z" fill="#D22BDF"/>
<path fill-rule="evenodd" clip-rule="evenodd" d="M5.96998 5.97261C5.25205 5.45943 5.10717 4.4848 5.64561 3.79987C6.18189 3.11494 7.19823 2.97629 7.91616 3.48948L20.7891 12.7288H26.9023C27.4018 12.7288 27.871 12.9482 28.1781 13.3227L33.1236 19.3464L44.5844 7.90119C45.2029 7.28247 46.23 7.26178 46.8766 7.85566C47.5232 8.44747 47.5448 9.43038 46.9263 10.0491L34.1723 22.7835C33.848 23.1083 33.3917 23.2822 32.9225 23.2594C32.4532 23.2387 32.0164 23.0214 31.7266 22.6676L26.1151 15.8327H20.2485C19.8982 15.8327 19.5565 15.7251 19.2754 15.5224L5.96998 5.97261Z" fill="#24F2FF"/>
</svg>
